<svg width="16" height="16" viewBox="0 0 16 16" fill="none" xmlns="http://www.w3.org/2000/svg">
<path fill-rule="evenodd" clip-rule="evenodd" d="M11.2509 10.8205L15.9126 15.4886C16.0324 15.6088 16.0286 15.8 15.9038 15.9157C15.8429 15.9719 15.7648 16 15.6864 16C15.6039 16 15.5217 15.9692 15.4602 15.9073L10.7872 11.2277C9.64649 12.1385 8.18295 12.6874 6.58827 12.6874C2.95531 12.6874 0 9.84179 0 6.34369C0 2.8456 2.95531 0 6.58827 0C10.2212 0 13.1765 2.8456 13.1765 6.34369C13.1765 8.08942 12.4399 9.67232 11.2509 10.8205ZM0.627455 6.34369C0.627455 9.50859 3.30135 12.0832 6.58827 12.0832C9.87488 12.0832 12.5491 9.50859 12.5491 6.34369C12.5491 3.17879 9.8752 0.604161 6.58827 0.604161C3.30135 0.604161 0.627455 3.17879 0.627455 6.34369Z" fill="#263238" fill-opacity="0.5"/>
</svg>
